<svg xmlns="http://www.w3.org/2000/svg" width="44.001" height="38.003" viewBox="0 0 44.001 38.003">
  <g id="ベクトルスマートオブジェクト" transform="translate(-459.999 -4127.999)">
    <g id="ベクトルスマートオブジェクト-2" data-name="ベクトルスマートオブジェクト" transform="translate(-4457.479 3956.839)">
      <g id="Group_5" data-name="Group 5">
        <path id="Path_1252" data-name="Path 1252" d="M4949.18,189.03h4.795a.682.682,0,0,0,0-1.36h-4.795a.682.682,0,0,0,0,1.36Z" fill="#1a1311"/>
        <path id="Path_1253" data-name="Path 1253" d="M4941.887,197.3h4.8a.68.68,0,0,0,0-1.356h-4.8a.68.68,0,0,0,0,1.356Z" fill="#1a1311"/>
        <path id="Path_1254" data-name="Path 1254" d="M4938.5,185.064h-4.135a.658.658,0,0,0-.633.684.651.651,0,0,0,.633.673h3.493a4.438,4.438,0,0,1-3.078,4.213h0a.713.713,0,0,0-.339.884.607.607,0,0,0,.817.369c2.715-1.2,3.869-3.031,3.869-6.138A.653.653,0,0,0,4938.5,185.064Z" fill="#1a1311"/>
        <path id="Path_1255" data-name="Path 1255" d="M4938.456,193.554h-4.093a.678.678,0,0,0,0,1.353h3.467v3.343h-3.467a.68.68,0,0,0,0,1.356h4.093a.651.651,0,0,0,.623-.676v-4.7A.646.646,0,0,0,4938.456,193.554Z" fill="#1a1311"/>
        <path id="Path_1256" data-name="Path 1256" d="M4942.414,188.862v-3.429h0a.627.627,0,1,0-1.249,0h0v3.429h0a.627.627,0,1,0,1.249,0Z" fill="#1a1311"/>
        <path id="Path_1257" data-name="Path 1257" d="M4942.928,191.929c3.005-.53,3.532-2.054,3.532-5.057v-1.439h0a.625.625,0,1,0-1.245,0h0v1.439c0,2.616-.29,3.332-2.485,3.715h0a.676.676,0,0,0-.518.78.627.627,0,0,0,.715.562Z" fill="#1a1311"/>
        <path id="Path_1258" data-name="Path 1258" d="M4949.351,193.926c0,2.484-.122,3.923-.824,5.4h0a.709.709,0,0,0,.267.916.6.6,0,0,0,.84-.293h0a13.153,13.153,0,0,0,.972-6.027h0a.63.63,0,1,0-1.255,0Z" fill="#1a1311"/>
        <path id="Path_1259" data-name="Path 1259" d="M4954.5,195.873a.613.613,0,0,0-.755.494h0a3.915,3.915,0,0,1-1.312,2.309v-4.907a.629.629,0,1,0-1.255,0h0v5.873a.719.719,0,0,0,.224.515.583.583,0,0,0,.5.161c1.434-.233,2.581-1.586,3.045-3.629A.673.673,0,0,0,4954.5,195.873Z" fill="#1a1311"/>
        <path id="Path_1260" data-name="Path 1260" d="M4956.752,178.372a23.727,23.727,0,0,0-17.274-7.212c-12.125,0-22,8.712-22,19.4a12.378,12.378,0,0,0,1.733,6.424.909.909,0,0,0,1.325.265,1.09,1.09,0,0,0,.247-1.439,10.1,10.1,0,0,1-1.4-5.251c0-9.553,9.023-17.33,20.1-17.33a21.862,21.862,0,0,1,15.93,6.607,15.434,15.434,0,0,1,4.165,10.6c0,8.271-7.4,16.654-21.549,16.654-3.592,0-6.72-1.163-8.591-3.2a6.748,6.748,0,0,1-1.3-2.015l.142.093a1.083,1.083,0,0,0,.857-.24,8.823,8.823,0,0,0,2.175-4.724c.188-1.829-2.208-2.455-1.872-5.823.151-1.471,2.122-6.2,3.694-7.573a4.145,4.145,0,0,1,3.467-.773c1.931.229,3.483-3.9,3.645-5.472.076-.866-1.229-1.943-3.388-2.2a5.311,5.311,0,0,0-4.021,1.478c-2.774,2.351-8.1,13.282-8.624,18.547a6.917,6.917,0,0,0,1.535,5.161l.066.029a8.484,8.484,0,0,0,2.277,4.975c2.254,2.448,5.787,3.8,9.939,3.8,6.957,0,12.925-1.965,17.235-5.684a17.073,17.073,0,0,0,6.218-13.039A17.542,17.542,0,0,0,4956.752,178.372Z" fill="#1a1311"/>
      </g>
    </g>
    <path id="Color_Overlay" data-name="Color Overlay" d="M470.606,4162.2a8.487,8.487,0,0,1-2.277-4.975l-.066-.028a6.917,6.917,0,0,1-1.535-5.161c.526-5.266,5.85-16.2,8.624-18.546a5.313,5.313,0,0,1,4.021-1.479c2.159.257,3.463,1.336,3.388,2.2-.162,1.571-1.713,5.7-3.644,5.474a4.142,4.142,0,0,0-3.467.772c-1.574,1.371-3.543,6.1-3.695,7.574-.336,3.368,2.06,3.994,1.871,5.824a8.825,8.825,0,0,1-2.175,4.724,1.085,1.085,0,0,1-.857.24l-.141-.093a6.724,6.724,0,0,0,1.3,2.015c1.871,2.033,5,3.2,8.59,3.2,14.148,0,21.549-8.383,21.549-16.654a15.425,15.425,0,0,0-4.165-10.6A21.859,21.859,0,0,0,482,4130.069c-11.077,0-20.1,7.777-20.1,17.329a10.1,10.1,0,0,0,1.4,5.25,1.093,1.093,0,0,1-.247,1.44.91.91,0,0,1-1.325-.266A12.38,12.38,0,0,1,460,4147.4c0-10.687,9.875-19.4,22-19.4a23.725,23.725,0,0,1,17.273,7.212A17.536,17.536,0,0,1,504,4147.279a17.071,17.071,0,0,1-6.218,13.039c-4.312,3.719-10.279,5.684-17.237,5.684C476.394,4166,472.86,4164.646,470.606,4162.2Zm23.318-5.2a.717.717,0,0,1-.224-.515v-5.874a.63.63,0,1,1,1.257,0v4.907a3.92,3.92,0,0,0,1.31-2.308.613.613,0,0,1,.755-.495.672.672,0,0,1,.452.815c-.464,2.043-1.61,3.4-3.045,3.63a.78.78,0,0,1-.1.007A.579.579,0,0,1,493.925,4157Zm-2.61.09a.71.71,0,0,1-.267-.917c.7-1.481.825-2.92.825-5.4a.63.63,0,1,1,1.255,0,13.156,13.156,0,0,1-.972,6.027.61.61,0,0,1-.551.369A.586.586,0,0,1,491.315,4157.086Zm-14.43-.641a.68.68,0,0,1,0-1.356h3.467v-3.343h-3.467a.678.678,0,0,1,0-1.354h4.093a.646.646,0,0,1,.622.676v4.7a.649.649,0,0,1-.622.675Zm7.524-2.3a.681.681,0,0,1,0-1.358h4.8a.681.681,0,0,1,0,1.358Zm-7.447-5.788a.714.714,0,0,1,.339-.885,4.438,4.438,0,0,0,3.078-4.212h-3.493a.65.65,0,0,1-.633-.673.658.658,0,0,1,.633-.684h4.135a.654.654,0,0,1,.627.684c0,3.107-1.153,4.936-3.869,6.138a.578.578,0,0,1-.24.055A.629.629,0,0,1,476.961,4148.357Zm7.773-.151a.677.677,0,0,1,.519-.781c2.194-.383,2.483-1.1,2.483-3.714v-1.439a.625.625,0,1,1,1.245,0v1.439c0,3-.527,4.527-3.531,5.056a.619.619,0,0,1-.108.01A.638.638,0,0,1,484.734,4148.207Zm-1.048-2.5v-3.429a.627.627,0,1,1,1.249,0v3.429a.627.627,0,1,1-1.249,0Zm8.014.168a.682.682,0,0,1,0-1.36h4.8a.682.682,0,0,1,0,1.36Z" fill="#fff"/>
  </g>
</svg>