<svg xmlns="http://www.w3.org/2000/svg" width="35.001" height="30.002" viewBox="0 0 35.001 30.002">
  <g id="ベクトルスマートオブジェクト" transform="translate(-3911.629 -135.126)">
    <g id="Group_21" data-name="Group 21">
      <path id="Path_1290" data-name="Path 1290" d="M3936.847,149.234h3.814a.538.538,0,0,0,0-1.074h-3.814a.538.538,0,0,0,0,1.074Z" fill="#1a1311"/>
      <path id="Path_1291" data-name="Path 1291" d="M3931.046,155.767h3.82a.537.537,0,0,0,0-1.071h-3.82a.537.537,0,0,0,0,1.071Z" fill="#1a1311"/>
      <path id="Path_1292" data-name="Path 1292" d="M3928.351,146.1h-3.29a.521.521,0,0,0-.5.54.516.516,0,0,0,.5.531h2.779a3.506,3.506,0,0,1-2.448,3.326h0a.561.561,0,0,0-.27.7.484.484,0,0,0,.65.291,4.67,4.67,0,0,0,3.077-4.846A.517.517,0,0,0,3928.351,146.1Z" fill="#1a1311"/>
      <path id="Path_1293" data-name="Path 1293" d="M3928.317,152.806h-3.256a.535.535,0,0,0,0,1.068h2.758v2.639h-2.758a.536.536,0,0,0,0,1.071h3.256a.515.515,0,0,0,.5-.534v-3.71A.512.512,0,0,0,3928.317,152.806Z" fill="#1a1311"/>
      <path id="Path_1294" data-name="Path 1294" d="M3931.466,149.1v-2.707h0a.5.5,0,1,0-.994,0h0V149.1h0a.5.5,0,1,0,.994,0Z" fill="#1a1311"/>
      <path id="Path_1295" data-name="Path 1295" d="M3931.875,151.523c2.391-.418,2.81-1.622,2.81-3.993v-1.136h0a.5.5,0,1,0-.991,0h0v1.136c0,2.066-.231,2.631-1.977,2.933h0a.534.534,0,0,0-.412.616.5.5,0,0,0,.569.444Z" fill="#1a1311"/>
      <path id="Path_1296" data-name="Path 1296" d="M3936.984,153.1a9.237,9.237,0,0,1-.655,4.267h0a.558.558,0,0,0,.212.723.475.475,0,0,0,.668-.232h0a10.312,10.312,0,0,0,.773-4.758h0a.5.5,0,1,0-1,0Z" fill="#1a1311"/>
      <path id="Path_1297" data-name="Path 1297" d="M3941.081,154.637a.487.487,0,0,0-.6.39h0a3.088,3.088,0,0,1-1.044,1.823v-3.874a.5.5,0,1,0-1,0h0v4.637a.565.565,0,0,0,.178.407.466.466,0,0,0,.4.127c1.14-.184,2.052-1.252,2.422-2.865A.53.53,0,0,0,3941.081,154.637Z" fill="#1a1311"/>
      <path id="Path_1298" data-name="Path 1298" d="M3942.871,140.82a18.945,18.945,0,0,0-13.741-5.694c-9.645,0-17.5,6.878-17.5,15.315a9.716,9.716,0,0,0,1.379,5.072.726.726,0,0,0,1.054.209.857.857,0,0,0,.2-1.136,7.929,7.929,0,0,1-1.117-4.145c0-7.542,7.177-13.682,15.988-13.682a17.456,17.456,0,0,1,12.672,5.216,12.134,12.134,0,0,1,3.313,8.372c0,6.53-5.888,13.148-17.141,13.148a9.262,9.262,0,0,1-6.834-2.523,5.323,5.323,0,0,1-1.035-1.591l.113.073a.866.866,0,0,0,.681-.189,6.942,6.942,0,0,0,1.73-3.73c.149-1.444-1.756-1.938-1.489-4.6.121-1.161,1.688-4.9,2.939-5.979a3.317,3.317,0,0,1,2.758-.61c1.536.181,2.771-3.08,2.9-4.32.06-.684-.978-1.534-2.7-1.738a4.244,4.244,0,0,0-3.2,1.167c-2.207,1.856-6.441,10.486-6.86,14.642a5.432,5.432,0,0,0,1.221,4.075l.052.023a6.676,6.676,0,0,0,1.812,3.928,10.576,10.576,0,0,0,7.906,3c5.534,0,10.281-1.551,13.71-4.487a13.439,13.439,0,0,0,4.947-10.294A13.793,13.793,0,0,0,3942.871,140.82Z" fill="#1a1311"/>
    </g>
  </g>
</svg>